<mxfile host="app.diagrams.net" modified="2023-06-21T07:21:49.941Z" agent="Mozilla/5.0 (Windows NT 10.0; Win64; x64) AppleWebKit/537.36 (KHTML, like Gecko) Chrome/114.0.0.0 Safari/537.36 Edg/114.0.1823.51" etag="o7UnIPNdVFjeV8Mty-QF" version="21.3.6" type="github">
  <diagram name="第 1 页" id="9gG5TRduuXv9n2lvh1-l">
    <mxGraphModel dx="1379" dy="835" grid="1" gridSize="10" guides="1" tooltips="1" connect="1" arrows="1" fold="1" page="1" pageScale="1" pageWidth="10000" pageHeight="10000" math="0" shadow="0">
      <root>
        <mxCell id="0" />
        <mxCell id="1" parent="0" />
        <mxCell id="RLxla1DwEqxDlipukyhl-1" value="" style="rounded=1;whiteSpace=wrap;html=1;" vertex="1" parent="1">
          <mxGeometry x="150" y="80" width="180" height="350" as="geometry" />
        </mxCell>
        <mxCell id="RLxla1DwEqxDlipukyhl-3" value="" style="rounded=1;whiteSpace=wrap;html=1;" vertex="1" parent="1">
          <mxGeometry x="710" y="80" width="180" height="350" as="geometry" />
        </mxCell>
        <mxCell id="RLxla1DwEqxDlipukyhl-4" value="" style="rounded=0;whiteSpace=wrap;html=1;fillColor=#f5f5f5;gradientColor=#b3b3b3;strokeColor=#666666;" vertex="1" parent="1">
          <mxGeometry x="740" y="140" width="120" height="60" as="geometry" />
        </mxCell>
        <mxCell id="RLxla1DwEqxDlipukyhl-5" value="" style="rounded=0;whiteSpace=wrap;html=1;fillColor=#f5f5f5;gradientColor=#b3b3b3;strokeColor=#666666;" vertex="1" parent="1">
          <mxGeometry x="740" y="220" width="120" height="60" as="geometry" />
        </mxCell>
        <mxCell id="RLxla1DwEqxDlipukyhl-6" value="" style="rounded=0;whiteSpace=wrap;html=1;fillColor=#f5f5f5;gradientColor=#b3b3b3;strokeColor=#666666;" vertex="1" parent="1">
          <mxGeometry x="740" y="300" width="120" height="60" as="geometry" />
        </mxCell>
        <mxCell id="RLxla1DwEqxDlipukyhl-8" value="内存缓存" style="text;html=1;strokeColor=none;fillColor=none;align=center;verticalAlign=middle;whiteSpace=wrap;rounded=0;" vertex="1" parent="1">
          <mxGeometry x="760" y="90" width="80" height="30" as="geometry" />
        </mxCell>
        <mxCell id="RLxla1DwEqxDlipukyhl-10" value="。。。。" style="text;html=1;strokeColor=none;fillColor=none;align=center;verticalAlign=middle;whiteSpace=wrap;rounded=0;" vertex="1" parent="1">
          <mxGeometry x="760" y="380" width="80" height="30" as="geometry" />
        </mxCell>
      </root>
    </mxGraphModel>
  </diagram>
</mxfile>
